<svg xmlns="http://www.w3.org/2000/svg" width="2000" height="250" style="width: 1000%; height: 100%;"><line x1="34.7588671875" x2="1651.2790234375002" y1="45.0" y2="45.0" stroke="#1967d2" stroke-width="1"></line><line x1="34.7588671875" x2="1651.2790234375002" y1="95.0" y2="95.0" stroke="#1967d2" stroke-width="1"></line><line x1="34.7588671875" x2="1651.2790234375002" y1="145.0" y2="145.0" stroke="#1967d2" stroke-width="1"></line><line x1="34.7588671875" x2="1651.2790234375002" y1="195.0" y2="195.0" stroke="#1967d2" stroke-width="1"></line><line x1="34.7588671875" x2="1651.2790234375002" y1="245.0" y2="245.0" stroke="#1967d2" stroke-width="1"></line><line x1="34.7588671875" x2="1651.2790234375002" y1="295.0" y2="295.0" stroke="#1967d2" stroke-width="1"></line><line x1="34.7588671875" x2="1651.2790234375002" y1="345.0" y2="345.0" stroke="#1967d2" stroke-width="1"></line><line x1="34.7588671875" x2="1651.2790234375002" y1="395.0" y2="395.0" stroke="#1967d2" stroke-width="1"></line><line x1="34.7588671875" x2="1651.2790234375002" y1="445.0" y2="445.0" stroke="#1967d2" stroke-width="1"></line><line x1="34.7588671875" x2="1651.2790234375002" y1="495.0" y2="495.0" stroke="#1967d2" stroke-width="1"></line><line x1="34.7588671875" x2="1651.2790234375002" y1="545.0" y2="545.0" stroke="#1967d2" stroke-width="1"></line><line x1="34.7588671875" x2="1651.2790234375002" y1="595.0" y2="595.0" stroke="#1967d2" stroke-width="1"></line><line x1="34.7588671875" x2="1651.2790234375002" y1="645.0" y2="645.0" stroke="#1967d2" stroke-width="1"></line><line x1="1229.5177343750001" x2="1319.5177343750001" y1="5.0" y2="5.0" stroke="black" stroke-width="1"></line><line x1="1229.5177343750001" x2="1319.5177343750001" y1="685.0" y2="685.0" stroke="black" stroke-width="1"></line><line x1="949.517734375" x2="1039.5177343750001" y1="5.0" y2="5.0" stroke="black" stroke-width="1"></line><line x1="949.517734375" x2="1039.5177343750001" y1="685.0" y2="685.0" stroke="black" stroke-width="1"></line><line x1="609.517734375" x2="699.517734375" y1="5.0" y2="5.0" stroke="black" stroke-width="1"></line><line x1="609.517734375" x2="699.517734375" y1="685.0" y2="685.0" stroke="black" stroke-width="1"></line><line x1="429.51773437500003" x2="599.517734375" y1="5.0" y2="5.0" stroke="black" stroke-width="1"></line><line x1="429.51773437500003" x2="599.517734375" y1="685.0" y2="685.0" stroke="black" stroke-width="1"></line><line x1="249.517734375" x2="419.51773437500003" y1="5.0" y2="5.0" stroke="black" stroke-width="1"></line><line x1="249.517734375" x2="419.51773437500003" y1="685.0" y2="685.0" stroke="black" stroke-width="1"></line><line x1="69.517734375" x2="239.517734375" y1="5.0" y2="5.0" stroke="black" stroke-width="1"></line><line x1="69.517734375" x2="239.517734375" y1="685.0" y2="685.0" stroke="black" stroke-width="1"></line><line x1="129.517734375" x2="129.517734375" y1="95.0" y2="595.0" stroke="black" stroke-width="3"></line><line x1="169.517734375" x2="169.517734375" y1="145.0" y2="645.0" stroke="black" stroke-width="3"></line><line x1="209.517734375" x2="209.517734375" y1="195.0" y2="445.0" stroke="black" stroke-width="3"></line><line x1="269.51773437500003" x2="269.51773437500003" y1="45.0" y2="545.0" stroke="black" stroke-width="3"></line><line x1="309.51773437500003" x2="309.51773437500003" y1="95.0" y2="295.0" stroke="black" stroke-width="3"></line><line x1="349.51773437500003" x2="349.51773437500003" y1="145.0" y2="345.0" stroke="black" stroke-width="3"></line><line x1="389.51773437500003" x2="389.51773437500003" y1="195.0" y2="395.0" stroke="black" stroke-width="3"></line><line x1="449.51773437500003" x2="449.51773437500003" y1="45.0" y2="245.0" stroke="black" stroke-width="3"></line><line x1="489.51773437500003" x2="489.51773437500003" y1="95.0" y2="595.0" stroke="black" stroke-width="3"></line><line x1="529.517734375" x2="529.517734375" y1="145.0" y2="645.0" stroke="black" stroke-width="3"></line><line x1="569.517734375" x2="569.517734375" y1="195.0" y2="445.0" stroke="black" stroke-width="3"></line><line x1="629.517734375" x2="629.517734375" y1="45.0" y2="545.0" stroke="black" stroke-width="3"></line><line x1="669.517734375" x2="669.517734375" y1="395.0" y2="645.0" stroke="black" stroke-width="3"></line><line x1="739.517734375" x2="739.517734375" y1="345.0" y2="645.0" stroke="black" stroke-width="3"></line><line x1="799.517734375" x2="799.517734375" y1="145.0" y2="345.0" stroke="black" stroke-width="3"></line><line x1="859.517734375" x2="859.517734375" y1="145.0" y2="645.0" stroke="black" stroke-width="3"></line><line x1="919.517734375" x2="919.517734375" y1="345.0" y2="595.0" stroke="black" stroke-width="3"></line><line x1="969.517734375" x2="969.517734375" y1="145.0" y2="345.0" stroke="black" stroke-width="3"></line><line x1="1009.517734375" x2="1009.517734375" y1="295.0" y2="595.0" stroke="black" stroke-width="3"></line><line x1="1079.5177343750001" x2="1079.5177343750001" y1="95.0" y2="295.0" stroke="black" stroke-width="3"></line><line x1="1139.5177343750001" x2="1139.5177343750001" y1="95.0" y2="595.0" stroke="black" stroke-width="3"></line><line x1="1199.5177343750001" x2="1199.5177343750001" y1="295.0" y2="545.0" stroke="black" stroke-width="3"></line><line x1="1249.5177343750001" x2="1249.5177343750001" y1="95.0" y2="295.0" stroke="black" stroke-width="3"></line><line x1="1289.5177343750001" x2="1289.5177343750001" y1="245.0" y2="545.0" stroke="black" stroke-width="3"></line><line x1="1359.5177343750001" x2="1359.5177343750001" y1="45.0" y2="245.0" stroke="black" stroke-width="3"></line><line x1="1419.5177343750001" x2="1419.5177343750001" y1="45.0" y2="545.0" stroke="black" stroke-width="3"></line><line x1="1479.5177343750001" x2="1479.5177343750001" y1="245.0" y2="495.0" stroke="black" stroke-width="3"></line><line x1="1539.5177343750001" x2="1539.5177343750001" y1="45.0" y2="245.0" stroke="black" stroke-width="3"></line><line x1="1605.3983789062502" x2="1605.3983789062502" y1="245.0" y2="445.0" stroke="black" stroke-width="3"></line><line x1="1229.5177343750001" x2="1229.5177343750001" y1="5.0" y2="15.0" stroke="black" stroke-width="3"></line><line x1="1319.5177343750001" x2="1319.5177343750001" y1="5.0" y2="15.0" stroke="black" stroke-width="3"></line><line x1="1229.5177343750001" x2="1229.5177343750001" y1="675.0" y2="685.0" stroke="black" stroke-width="3"></line><line x1="1319.5177343750001" x2="1319.5177343750001" y1="675.0" y2="685.0" stroke="black" stroke-width="3"></line><line x1="949.517734375" x2="949.517734375" y1="5.0" y2="15.0" stroke="black" stroke-width="3"></line><line x1="1039.5177343750001" x2="1039.5177343750001" y1="5.0" y2="15.0" stroke="black" stroke-width="3"></line><line x1="949.517734375" x2="949.517734375" y1="675.0" y2="685.0" stroke="black" stroke-width="3"></line><line x1="1039.5177343750001" x2="1039.5177343750001" y1="675.0" y2="685.0" stroke="black" stroke-width="3"></line><line x1="609.517734375" x2="609.517734375" y1="5.0" y2="15.0" stroke="black" stroke-width="3"></line><line x1="699.517734375" x2="699.517734375" y1="5.0" y2="15.0" stroke="black" stroke-width="3"></line><line x1="609.517734375" x2="609.517734375" y1="675.0" y2="685.0" stroke="black" stroke-width="3"></line><line x1="699.517734375" x2="699.517734375" y1="675.0" y2="685.0" stroke="black" stroke-width="3"></line><line x1="429.51773437500003" x2="429.51773437500003" y1="5.0" y2="15.0" stroke="black" stroke-width="3"></line><line x1="599.517734375" x2="599.517734375" y1="5.0" y2="15.0" stroke="black" stroke-width="3"></line><line x1="429.51773437500003" x2="429.51773437500003" y1="675.0" y2="685.0" stroke="black" stroke-width="3"></line><line x1="599.517734375" x2="599.517734375" y1="675.0" y2="685.0" stroke="black" stroke-width="3"></line><line x1="249.517734375" x2="249.517734375" y1="5.0" y2="15.0" stroke="black" stroke-width="3"></line><line x1="419.51773437500003" x2="419.51773437500003" y1="5.0" y2="15.0" stroke="black" stroke-width="3"></line><line x1="249.517734375" x2="249.517734375" y1="675.0" y2="685.0" stroke="black" stroke-width="3"></line><line x1="419.51773437500003" x2="419.51773437500003" y1="675.0" y2="685.0" stroke="black" stroke-width="3"></line><line x1="69.517734375" x2="69.517734375" y1="5.0" y2="15.0" stroke="black" stroke-width="3"></line><line x1="239.517734375" x2="239.517734375" y1="5.0" y2="15.0" stroke="black" stroke-width="3"></line><line x1="69.517734375" x2="69.517734375" y1="675.0" y2="685.0" stroke="black" stroke-width="3"></line><line x1="239.517734375" x2="239.517734375" y1="675.0" y2="685.0" stroke="black" stroke-width="3"></line><rect x="10.0" y="25.0" width="49.517734375" height="40" stroke="black" fill="white" stroke-width="0"></rect><text x="34.7588671875" y="45.0" dominant-baseline="middle" text-anchor="middle" font-size="14px">(0, 0): </text><rect x="10.0" y="75.0" width="49.517734375" height="40" stroke="black" fill="white" stroke-width="0"></rect><text x="34.7588671875" y="95.0" dominant-baseline="middle" text-anchor="middle" font-size="14px">(0, 1): </text><rect x="10.0" y="125.0" width="49.517734375" height="40" stroke="black" fill="white" stroke-width="0"></rect><text x="34.7588671875" y="145.0" dominant-baseline="middle" text-anchor="middle" font-size="14px">(0, 2): </text><rect x="10.0" y="175.0" width="49.517734375" height="40" stroke="black" fill="white" stroke-width="0"></rect><text x="34.7588671875" y="195.0" dominant-baseline="middle" text-anchor="middle" font-size="14px">(0, 3): </text><rect x="10.0" y="225.0" width="49.517734375" height="40" stroke="black" fill="white" stroke-width="0"></rect><text x="34.7588671875" y="245.0" dominant-baseline="middle" text-anchor="middle" font-size="14px">(1, 0): </text><rect x="10.0" y="275.0" width="49.517734375" height="40" stroke="black" fill="white" stroke-width="0"></rect><text x="34.7588671875" y="295.0" dominant-baseline="middle" text-anchor="middle" font-size="14px">(1, 1): </text><rect x="10.0" y="325.0" width="49.517734375" height="40" stroke="black" fill="white" stroke-width="0"></rect><text x="34.7588671875" y="345.0" dominant-baseline="middle" text-anchor="middle" font-size="14px">(1, 2): </text><rect x="10.0" y="375.0" width="49.517734375" height="40" stroke="black" fill="white" stroke-width="0"></rect><text x="34.7588671875" y="395.0" dominant-baseline="middle" text-anchor="middle" font-size="14px">(1, 3): </text><rect x="10.0" y="425.0" width="49.517734375" height="40" stroke="black" fill="white" stroke-width="0"></rect><text x="34.7588671875" y="445.0" dominant-baseline="middle" text-anchor="middle" font-size="14px">(1, 4): </text><rect x="10.0" y="475.0" width="49.517734375" height="40" stroke="black" fill="white" stroke-width="0"></rect><text x="34.7588671875" y="495.0" dominant-baseline="middle" text-anchor="middle" font-size="14px">(2, 0): </text><rect x="10.0" y="525.0" width="49.517734375" height="40" stroke="black" fill="white" stroke-width="0"></rect><text x="34.7588671875" y="545.0" dominant-baseline="middle" text-anchor="middle" font-size="14px">(2, 1): </text><rect x="10.0" y="575.0" width="49.517734375" height="40" stroke="black" fill="white" stroke-width="0"></rect><text x="34.7588671875" y="595.0" dominant-baseline="middle" text-anchor="middle" font-size="14px">(2, 2): </text><rect x="10.0" y="625.0" width="49.517734375" height="40" stroke="black" fill="white" stroke-width="0"></rect><text x="34.7588671875" y="645.0" dominant-baseline="middle" text-anchor="middle" font-size="14px">(2, 3): </text><rect x="69.517734375" y="25.0" width="40" height="40" stroke="black" fill="white" stroke-width="1"></rect><text x="89.517734375" y="45.0" dominant-baseline="middle" text-anchor="middle" font-size="18px">X</text><rect x="69.517734375" y="225.0" width="40" height="40" stroke="black" fill="white" stroke-width="1"></rect><text x="89.517734375" y="245.0" dominant-baseline="middle" text-anchor="middle" font-size="18px">X</text><circle cx="129.517734375" cy="95.0" r="10.0"></circle><circle cx="129.517734375" cy="295.0" r="10.0"></circle><rect x="109.517734375" y="575.0" width="40" height="40" stroke="black" fill="white" stroke-width="1"></rect><text x="129.517734375" y="595.0" dominant-baseline="middle" text-anchor="middle" font-size="18px">X</text><circle cx="169.517734375" cy="145.0" r="10.0"></circle><circle cx="169.517734375" cy="345.0" r="10.0"></circle><rect x="149.517734375" y="625.0" width="40" height="40" stroke="black" fill="white" stroke-width="1"></rect><text x="169.517734375" y="645.0" dominant-baseline="middle" text-anchor="middle" font-size="18px">X</text><circle cx="209.517734375" cy="195.0" r="10.0"></circle><circle cx="209.517734375" cy="395.0" r="10.0"></circle><rect x="189.517734375" y="425.0" width="40" height="40" stroke="black" fill="white" stroke-width="1"></rect><text x="209.517734375" y="445.0" dominant-baseline="middle" text-anchor="middle" font-size="18px">X</text><circle cx="269.51773437500003" cy="45.0" r="10.0"></circle><circle cx="269.51773437500003" cy="245.0" r="10.0"></circle><rect x="249.51773437500003" y="525.0" width="40" height="40" stroke="black" fill="white" stroke-width="1"></rect><text x="269.51773437500003" y="545.0" dominant-baseline="middle" text-anchor="middle" font-size="18px">X</text><circle cx="309.51773437500003" cy="95.0" r="10.0"></circle><rect x="289.51773437500003" y="275.0" width="40" height="40" stroke="black" fill="white" stroke-width="1"></rect><text x="309.51773437500003" y="295.0" dominant-baseline="middle" text-anchor="middle" font-size="18px">X</text><circle cx="349.51773437500003" cy="145.0" r="10.0"></circle><rect x="329.51773437500003" y="325.0" width="40" height="40" stroke="black" fill="white" stroke-width="1"></rect><text x="349.51773437500003" y="345.0" dominant-baseline="middle" text-anchor="middle" font-size="18px">X</text><circle cx="389.51773437500003" cy="195.0" r="10.0"></circle><rect x="369.51773437500003" y="375.0" width="40" height="40" stroke="black" fill="white" stroke-width="1"></rect><text x="389.51773437500003" y="395.0" dominant-baseline="middle" text-anchor="middle" font-size="18px">X</text><circle cx="449.51773437500003" cy="45.0" r="10.0"></circle><rect x="429.51773437500003" y="225.0" width="40" height="40" stroke="black" fill="white" stroke-width="1"></rect><text x="449.51773437500003" y="245.0" dominant-baseline="middle" text-anchor="middle" font-size="18px">X</text><circle cx="489.51773437500003" cy="95.0" r="10.0"></circle><circle cx="489.51773437500003" cy="295.0" r="10.0"></circle><rect x="469.51773437500003" y="575.0" width="40" height="40" stroke="black" fill="white" stroke-width="1"></rect><text x="489.51773437500003" y="595.0" dominant-baseline="middle" text-anchor="middle" font-size="18px">X</text><circle cx="529.517734375" cy="145.0" r="10.0"></circle><circle cx="529.517734375" cy="345.0" r="10.0"></circle><rect x="509.51773437500003" y="625.0" width="40" height="40" stroke="black" fill="white" stroke-width="1"></rect><text x="529.517734375" y="645.0" dominant-baseline="middle" text-anchor="middle" font-size="18px">X</text><circle cx="569.517734375" cy="195.0" r="10.0"></circle><circle cx="569.517734375" cy="395.0" r="10.0"></circle><rect x="549.517734375" y="425.0" width="40" height="40" stroke="black" fill="white" stroke-width="1"></rect><text x="569.517734375" y="445.0" dominant-baseline="middle" text-anchor="middle" font-size="18px">X</text><circle cx="629.517734375" cy="45.0" r="10.0"></circle><circle cx="629.517734375" cy="245.0" r="10.0"></circle><rect x="609.517734375" y="525.0" width="40" height="40" stroke="black" fill="white" stroke-width="1"></rect><text x="629.517734375" y="545.0" dominant-baseline="middle" text-anchor="middle" font-size="18px">X</text><circle cx="669.517734375" cy="645.0" r="10.0"></circle><rect x="649.517734375" y="375.0" width="40" height="40" stroke="black" fill="white" stroke-width="1"></rect><text x="669.517734375" y="395.0" dominant-baseline="middle" text-anchor="middle" font-size="18px">X</text><circle cx="739.517734375" cy="595.0" r="10.0"></circle><circle cx="739.517734375" cy="345.0" r="10.0"></circle><rect x="719.517734375" y="625.0" width="40" height="40" stroke="black" fill="white" stroke-width="1"></rect><text x="739.517734375" y="645.0" dominant-baseline="middle" text-anchor="middle" font-size="18px">X</text><circle cx="799.517734375" cy="145.0" r="10.0"></circle><rect x="779.517734375" y="325.0" width="40" height="40" stroke="black" fill="white" stroke-width="1"></rect><text x="799.517734375" y="345.0" dominant-baseline="middle" text-anchor="middle" font-size="18px">X</text><circle cx="859.517734375" cy="145.0" r="10.0"></circle><circle cx="859.517734375" cy="345.0" r="10.0"></circle><rect x="839.517734375" y="625.0" width="40" height="40" stroke="black" fill="white" stroke-width="1"></rect><text x="859.517734375" y="645.0" dominant-baseline="middle" text-anchor="middle" font-size="18px">X</text><circle cx="919.517734375" cy="595.0" r="10.0"></circle><rect x="899.517734375" y="325.0" width="40" height="40" stroke="black" fill="white" stroke-width="1"></rect><text x="919.517734375" y="345.0" dominant-baseline="middle" text-anchor="middle" font-size="18px">X</text><circle cx="969.517734375" cy="145.0" r="10.0"></circle><rect x="949.517734375" y="325.0" width="40" height="40" stroke="black" fill="white" stroke-width="1"></rect><text x="969.517734375" y="345.0" dominant-baseline="middle" text-anchor="middle" font-size="18px">X</text><circle cx="1009.517734375" cy="545.0" r="10.0"></circle><circle cx="1009.517734375" cy="295.0" r="10.0"></circle><rect x="989.517734375" y="575.0" width="40" height="40" stroke="black" fill="white" stroke-width="1"></rect><text x="1009.517734375" y="595.0" dominant-baseline="middle" text-anchor="middle" font-size="18px">X</text><circle cx="1079.5177343750001" cy="95.0" r="10.0"></circle><rect x="1059.5177343750001" y="275.0" width="40" height="40" stroke="black" fill="white" stroke-width="1"></rect><text x="1079.5177343750001" y="295.0" dominant-baseline="middle" text-anchor="middle" font-size="18px">X</text><circle cx="1139.5177343750001" cy="95.0" r="10.0"></circle><circle cx="1139.5177343750001" cy="295.0" r="10.0"></circle><rect x="1119.5177343750001" y="575.0" width="40" height="40" stroke="black" fill="white" stroke-width="1"></rect><text x="1139.5177343750001" y="595.0" dominant-baseline="middle" text-anchor="middle" font-size="18px">X</text><circle cx="1199.5177343750001" cy="545.0" r="10.0"></circle><rect x="1179.5177343750001" y="275.0" width="40" height="40" stroke="black" fill="white" stroke-width="1"></rect><text x="1199.5177343750001" y="295.0" dominant-baseline="middle" text-anchor="middle" font-size="18px">X</text><circle cx="1249.5177343750001" cy="95.0" r="10.0"></circle><rect x="1229.5177343750001" y="275.0" width="40" height="40" stroke="black" fill="white" stroke-width="1"></rect><text x="1249.5177343750001" y="295.0" dominant-baseline="middle" text-anchor="middle" font-size="18px">X</text><circle cx="1289.5177343750001" cy="495.0" r="10.0"></circle><circle cx="1289.5177343750001" cy="245.0" r="10.0"></circle><rect x="1269.5177343750001" y="525.0" width="40" height="40" stroke="black" fill="white" stroke-width="1"></rect><text x="1289.5177343750001" y="545.0" dominant-baseline="middle" text-anchor="middle" font-size="18px">X</text><circle cx="1359.5177343750001" cy="45.0" r="10.0"></circle><rect x="1339.5177343750001" y="225.0" width="40" height="40" stroke="black" fill="white" stroke-width="1"></rect><text x="1359.5177343750001" y="245.0" dominant-baseline="middle" text-anchor="middle" font-size="18px">X</text><circle cx="1419.5177343750001" cy="45.0" r="10.0"></circle><circle cx="1419.5177343750001" cy="245.0" r="10.0"></circle><rect x="1399.5177343750001" y="525.0" width="40" height="40" stroke="black" fill="white" stroke-width="1"></rect><text x="1419.5177343750001" y="545.0" dominant-baseline="middle" text-anchor="middle" font-size="18px">X</text><circle cx="1479.5177343750001" cy="495.0" r="10.0"></circle><rect x="1459.5177343750001" y="225.0" width="40" height="40" stroke="black" fill="white" stroke-width="1"></rect><text x="1479.5177343750001" y="245.0" dominant-baseline="middle" text-anchor="middle" font-size="18px">X</text><circle cx="1539.5177343750001" cy="45.0" r="10.0"></circle><rect x="1519.5177343750001" y="225.0" width="40" height="40" stroke="black" fill="white" stroke-width="1"></rect><text x="1539.5177343750001" y="245.0" dominant-baseline="middle" text-anchor="middle" font-size="18px">X</text><rect x="1579.5177343750001" y="225.0" width="51.7612890625" height="40" stroke="black" fill="white" stroke-width="1"></rect><text x="1605.3983789062502" y="245.0" dominant-baseline="middle" text-anchor="middle" font-size="14px">M('m')</text><rect x="1579.5177343750001" y="275.0" width="51.7612890625" height="40" stroke="black" fill="white" stroke-width="1"></rect><text x="1605.3983789062502" y="295.0" dominant-baseline="middle" text-anchor="middle" font-size="18px">M</text><rect x="1579.5177343750001" y="325.0" width="51.7612890625" height="40" stroke="black" fill="white" stroke-width="1"></rect><text x="1605.3983789062502" y="345.0" dominant-baseline="middle" text-anchor="middle" font-size="18px">M</text><rect x="1579.5177343750001" y="375.0" width="51.7612890625" height="40" stroke="black" fill="white" stroke-width="1"></rect><text x="1605.3983789062502" y="395.0" dominant-baseline="middle" text-anchor="middle" font-size="18px">M</text><rect x="1579.5177343750001" y="425.0" width="51.7612890625" height="40" stroke="black" fill="white" stroke-width="1"></rect><text x="1605.3983789062502" y="445.0" dominant-baseline="middle" text-anchor="middle" font-size="18px">M</text></svg>